<svg width="43" height="42" viewBox="0 0 43 42" fill="none" xmlns="http://www.w3.org/2000/svg">
<path d="M35.7859 18.249C36.5942 21.2656 36.4898 24.4542 35.486 27.4115C34.4821 30.3688 32.6238 32.962 30.1462 34.8632C27.6685 36.7643 24.6827 37.8881 21.5663 38.0924C18.45 38.2966 15.343 37.5722 12.6384 36.0107C9.93378 34.4492 7.75293 32.1207 6.37165 29.3197C4.99036 26.5187 4.47068 23.3711 4.87832 20.2748C5.28596 17.1784 6.60261 14.2725 8.66177 11.9245C10.7209 9.57649 13.4301 7.8918 16.4467 7.0835L20.5336 22.3358L35.7859 18.249Z" fill="#F15060"/>
<path d="M18.1643 4.10734C20.1672 3.57065 22.2563 3.43373 24.3122 3.70439C26.3681 3.97505 28.3505 4.648 30.1463 5.68481C31.9421 6.72162 33.5161 8.10198 34.7785 9.7471C36.0408 11.3922 36.9667 13.2699 37.5034 15.2728L22.2511 19.3597L18.1643 4.10734Z" fill="#FF7482"/>
</svg>
